<svg xmlns="http://www.w3.org/2000/svg" xmlns:xlink="http://www.w3.org/1999/xlink" width="500" zoomAndPan="magnify" viewBox="0 0 375 374.999991" height="500" preserveAspectRatio="xMidYMid meet" version="1.0"><defs><clipPath id="cc5ee91898"><path d="M 4.804688 168 L 256 168 L 256 243 L 4.804688 243 Z M 4.804688 168 " clip-rule="nonzero"/></clipPath><clipPath id="15e9b39fab"><path d="M 237 121.5 L 368 121.5 L 368 240 L 237 240 Z M 237 121.5 " clip-rule="nonzero"/></clipPath></defs><g clip-path="url(#cc5ee91898)"><path fill="#ffffff" d="M 252.589844 215.835938 C 184.859375 251.390625 123.179688 253.511719 59.78125 207.738281 C 41.492188 194.699219 23.859375 180.976562 4.960938 168.859375 C 24.308594 180.125 42.625 193.222656 61.28125 205.488281 C 124.449219 247.445312 183.179688 243.640625 247.519531 206.625 C 250.042969 205.152344 253.292969 206.027344 254.734375 208.570312 C 256.210938 211.152344 255.230469 214.472656 252.589844 215.835938 " fill-opacity="1" fill-rule="nonzero"/></g><g clip-path="url(#15e9b39fab)"><path fill="#ffffff" d="M 367.441406 134.078125 C 365.011719 129.875 351.28125 133.984375 345.957031 137.222656 C 345.875 137.269531 338.75 142.332031 328.644531 149.515625 L 304.792969 139.019531 L 305.246094 138.71875 C 306.503906 137.894531 306.859375 136.1875 306.03125 134.925781 L 305.433594 134.007812 C 304.605469 132.75 302.898438 132.394531 301.640625 133.222656 L 298.707031 135.144531 C 298.367188 135.367188 298.101562 135.660156 297.898438 135.984375 L 286.378906 130.917969 L 286.921875 130.558594 C 288.179688 129.734375 288.53125 128.023438 287.707031 126.761719 L 287.105469 125.851562 C 286.277344 124.589844 284.570312 124.234375 283.3125 125.0625 L 280.289062 127.042969 C 279.949219 127.269531 279.683594 127.558594 279.480469 127.878906 L 266.40625 122.125 C 265.027344 121.519531 262.867188 121.699219 261.609375 122.527344 L 256.195312 126.078125 C 254.9375 126.90625 254.921875 128.28125 256.164062 129.132812 L 307.59375 164.484375 C 288.96875 177.726562 269.191406 191.792969 262.503906 196.546875 L 243.5625 189.457031 C 242.109375 188.914062 239.933594 189.117188 238.730469 189.90625 C 237.523438 190.699219 237.597656 192.042969 238.890625 192.894531 L 256.707031 204.640625 C 257.203125 204.96875 258.1875 206.472656 258.289062 207.058594 L 261.972656 228.089844 C 262.242188 229.617188 263.445312 230.222656 264.652344 229.429688 C 265.855469 228.640625 266.90625 226.726562 266.984375 225.175781 L 268.023438 204.835938 L 315.316406 176.261719 L 327.253906 237.519531 C 327.542969 239 328.808594 239.535156 330.070312 238.707031 L 335.480469 235.15625 C 336.742188 234.328125 337.765625 232.417969 337.757812 230.910156 L 337.683594 216.621094 C 338.0625 216.566406 338.433594 216.433594 338.773438 216.210938 L 341.796875 214.226562 C 343.054688 213.398438 343.410156 211.691406 342.582031 210.429688 L 341.980469 209.515625 C 341.15625 208.253906 339.445312 207.902344 338.1875 208.726562 L 337.648438 209.082031 L 337.582031 196.492188 C 337.964844 196.433594 338.335938 196.304688 338.675781 196.082031 L 341.605469 194.15625 C 342.863281 193.328125 343.222656 191.621094 342.394531 190.363281 L 341.792969 189.445312 C 340.96875 188.1875 339.257812 187.828125 338 188.65625 L 337.546875 188.957031 L 337.414062 162.914062 L 354.738281 152.441406 C 360.066406 149.203125 369.867188 138.28125 367.441406 134.078125 " fill-opacity="1" fill-rule="nonzero"/></g></svg>