<svg xmlns="http://www.w3.org/2000/svg" xmlns:xlink="http://www.w3.org/1999/xlink" width="500" zoomAndPan="magnify" viewBox="0 0 375 374.999991" height="500" preserveAspectRatio="xMidYMid meet" version="1.0"><defs><clipPath id="7738b27f12"><path d="M 17 4.234375 L 360 4.234375 L 360 370.984375 L 17 370.984375 Z M 17 4.234375 " clip-rule="nonzero"/></clipPath></defs><path fill="#ffffff" d="M 132.535156 162.003906 L 161.40625 134.496094 L 181.699219 177.789062 C 182.613281 179.6875 184.316406 180.996094 186.410156 181.390625 C 188.441406 181.78125 190.601562 181.0625 192.042969 179.621094 L 205.789062 165.867188 C 207.488281 164.230469 208.078125 161.742188 207.425781 159.449219 L 191.320312 106.007812 L 213.972656 84.398438 C 218.554688 80.074219 221.105469 74.179688 221.171875 67.894531 C 221.238281 61.605469 218.816406 55.648438 214.363281 51.191406 C 209.914062 46.738281 203.957031 44.578125 197.671875 44.382812 C 191.386719 44.449219 185.496094 47 181.175781 51.585938 L 159.570312 74.246094 L 106.15625 58.136719 C 103.863281 57.480469 101.441406 58.070312 99.738281 59.773438 L 85.992188 73.527344 C 84.488281 75.03125 83.832031 77.128906 84.222656 79.15625 C 84.550781 81.1875 85.925781 82.957031 87.824219 83.875 L 131.09375 104.175781 L 103.601562 133.058594 L 86.121094 127.753906 C 83.832031 127.097656 81.410156 127.6875 79.707031 129.390625 L 67.402344 141.703125 C 65.894531 143.207031 65.242188 145.304688 65.632812 147.335938 C 65.960938 149.363281 67.335938 151.132812 69.234375 152.050781 L 99.476562 166.195312 L 113.617188 196.453125 C 114.535156 198.351562 116.234375 199.660156 118.332031 200.054688 C 118.722656 200.121094 119.050781 200.121094 119.441406 200.121094 C 121.144531 200.121094 122.78125 199.464844 123.960938 198.21875 L 136.265625 185.910156 C 137.96875 184.269531 138.558594 181.78125 137.902344 179.492188 Z M 121.277344 182.699219 L 110.015625 158.664062 C 109.363281 157.289062 108.316406 156.242188 106.941406 155.585938 L 82.914062 144.320312 L 86.058594 141.179688 L 103.601562 146.484375 C 105.894531 147.203125 108.445312 146.546875 110.082031 144.78125 L 146.480469 106.597656 C 147.917969 105.09375 148.507812 102.996094 148.117188 100.964844 C 147.722656 98.9375 146.414062 97.234375 144.515625 96.316406 L 101.441406 76.144531 L 106.023438 71.625 L 159.507812 87.804688 C 161.796875 88.457031 164.351562 87.867188 165.988281 86.101562 L 190.273438 60.625 C 192.238281 58.59375 194.855469 57.414062 197.671875 57.414062 C 200.355469 57.085938 203.105469 58.460938 205.132812 60.425781 C 207.097656 62.390625 208.210938 65.078125 208.144531 67.894531 C 208.144531 70.710938 206.964844 73.328125 204.9375 75.292969 L 179.472656 99.589844 C 177.703125 101.226562 177.050781 103.78125 177.769531 106.074219 L 193.9375 159.582031 L 189.421875 164.164062 L 169.261719 121.070312 C 168.410156 119.171875 166.640625 117.863281 164.613281 117.46875 C 162.582031 117.078125 160.488281 117.730469 158.984375 119.109375 L 120.816406 155.519531 C 119.050781 157.15625 118.394531 159.710938 119.117188 162.003906 L 124.417969 179.554688 Z M 121.277344 182.699219 " fill-opacity="1" fill-rule="nonzero"/><g clip-path="url(#7738b27f12)"><path fill="#ffffff" d="M 359.101562 191.015625 C 359.035156 190.953125 358.96875 190.886719 358.96875 190.820312 C 359.429688 185.777344 359.691406 180.667969 359.691406 175.496094 C 359.691406 136.070312 346.269531 99.722656 323.75 70.710938 C 323.621094 70.449219 323.488281 70.1875 323.292969 69.988281 C 323.164062 69.859375 322.964844 69.792969 322.835938 69.597656 C 291.542969 29.84375 242.972656 4.234375 188.507812 4.234375 C 94.109375 4.234375 17.320312 81.058594 17.320312 175.496094 C 17.320312 203.984375 24.328125 230.835938 36.699219 254.476562 C 23.476562 285.453125 15.292969 320.625 30.609375 344.398438 C 41.9375 362.078125 64.519531 370.984375 97.839844 370.984375 C 114.925781 370.984375 134.828125 368.628906 157.542969 363.980469 C 161.011719 363.257812 163.238281 359.851562 162.515625 356.382812 C 161.796875 352.910156 158.457031 350.683594 154.925781 351.40625 C 93.585938 363.980469 55.355469 359.328125 41.28125 337.453125 C 30.480469 320.6875 34.996094 294.492188 44.816406 268.558594 C 75.453125 315.582031 128.410156 346.753906 188.507812 346.753906 C 275.375 346.753906 347.316406 281.65625 358.183594 197.695312 C 359.691406 195.863281 360.148438 193.308594 359.101562 191.015625 Z M 346.269531 188.527344 C 339.660156 188.070312 332.195312 180.734375 322.835938 170.78125 C 316.027344 163.511719 309.675781 156.632812 302.804688 154.078125 C 294.164062 150.871094 285.390625 154.667969 276.945312 158.335938 C 266.734375 162.789062 256.128906 167.375 244.019531 161.9375 C 240.222656 160.234375 236.292969 157.289062 239.175781 149.5625 C 242.511719 140.589844 251.675781 134.367188 254.035156 135.085938 C 259.859375 140.261719 268.171875 140.917969 276.945312 136.921875 C 287.289062 132.140625 298.089844 120.285156 297.828125 107.710938 C 297.632812 100.050781 311.117188 88.523438 317.269531 83.480469 C 335.863281 109.414062 346.859375 141.242188 346.859375 175.496094 C 346.859375 179.882812 346.664062 184.207031 346.269531 188.527344 Z M 188.507812 333.917969 C 129.722656 333.917969 78.332031 301.695312 51.035156 253.953125 C 61.96875 229.851562 76.042969 207.585938 84.8125 195.46875 C 86.910156 192.589844 86.253906 188.59375 83.375 186.496094 C 80.492188 184.402344 76.5 185.058594 74.40625 187.875 C 72.964844 189.835938 57.386719 211.515625 43.574219 239.347656 C 34.929688 219.765625 30.085938 198.15625 30.085938 175.429688 C 30.152344 88.128906 101.179688 17.074219 188.507812 17.074219 C 236.949219 17.074219 280.351562 38.945312 309.414062 73.328125 C 300.183594 80.859375 284.734375 94.023438 285.0625 107.972656 C 285.195312 113.867188 279.039062 121.792969 271.644531 125.199219 C 269.808594 126.050781 265.226562 127.753906 262.675781 125.460938 C 258.550781 121.726562 252.59375 121.203125 246.375 123.953125 C 236.292969 128.472656 225.492188 141.703125 225.492188 154.277344 C 225.492188 162.789062 230.207031 169.667969 238.910156 173.53125 C 256.195312 181.257812 271.183594 174.773438 282.183594 169.992188 C 288.859375 167.046875 294.6875 164.558594 298.484375 166 C 302.476562 167.503906 308.171875 173.597656 313.605469 179.425781 C 322.441406 188.855469 332.917969 199.988281 344.832031 201.234375 C 332.390625 276.417969 267.0625 333.917969 188.507812 333.917969 Z M 188.507812 333.917969 " fill-opacity="1" fill-rule="nonzero"/></g><path fill="#ffffff" d="M 205.722656 202.148438 C 197.210938 201.496094 189.226562 200.839844 184.578125 199.070312 C 170.699219 193.765625 164.351562 181.652344 164.285156 181.453125 C 163.304688 179.492188 161.46875 178.179688 159.308594 177.984375 C 157.148438 177.722656 154.988281 178.574219 153.613281 180.277344 C 132.078125 206.339844 146.675781 222.648438 157.28125 234.566406 C 162.386719 240.332031 167.230469 245.765625 168.539062 251.726562 C 170.175781 259.453125 169.785156 269.148438 169.390625 278.578125 C 168.671875 295.671875 167.886719 313.289062 180.257812 320.625 C 182.679688 322.0625 185.234375 322.785156 187.785156 322.785156 C 190.078125 322.785156 192.304688 322.195312 194.527344 321.082031 C 208.601562 313.878906 217.046875 282.835938 218.03125 271.765625 C 218.355469 269.277344 227.195312 263.449219 231.972656 260.371094 C 244.671875 252.054688 262.085938 240.59375 255.605469 223.433594 C 248.863281 205.554688 224.96875 203.65625 205.722656 202.148438 Z M 224.902344 249.566406 C 214.757812 256.246094 205.984375 261.945312 205.199219 270.589844 C 204.152344 282.640625 195.707031 306.019531 188.636719 309.621094 C 187.851562 310.015625 187.523438 310.015625 186.804688 309.554688 C 181.042969 306.148438 181.632812 292.332031 182.15625 279.035156 C 182.613281 268.820312 183.074219 258.277344 181.042969 248.976562 C 179.078125 239.742188 172.859375 232.734375 166.839844 225.988281 C 157.671875 215.707031 151.128906 208.371094 158.457031 195.46875 C 162.84375 200.710938 169.847656 207.191406 179.996094 211.058594 C 186.347656 213.480469 195.25 214.199219 204.742188 214.921875 C 221.105469 216.230469 239.699219 217.671875 243.558594 227.886719 C 246.242188 234.894531 237.472656 241.3125 224.902344 249.566406 Z M 224.902344 249.566406 " fill-opacity="1" fill-rule="nonzero"/></svg>